<svg xmlns="http://www.w3.org/2000/svg" style="display: none;">
    <symbol id="icon-whatsapp" viewBox="0 0 32 32">
        <path d="M26.8796 9.12C23.0396 3.2 15.1996 1.44 9.11965 5.12C3.19965 8.8 1.27965 16.8 5.11965 22.72L5.43965 23.2L4.15965 28L8.95965 26.72L9.43965 27.04C11.5196 28.16 13.7596 28.8 15.9996 28.8C18.3996 28.8 20.7996 28.16 22.8796 26.88C28.7996 23.04 30.5596 15.2 26.8796 9.12ZM23.5196 21.44C22.8796 22.4 22.0796 23.04 20.9596 23.2C20.3196 23.2 19.5196 23.52 16.3196 22.24C13.5996 20.96 11.3596 18.88 9.75965 16.48C8.79965 15.36 8.31965 13.92 8.15965 12.48C8.15965 11.2 8.63965 10.08 9.43965 9.28C9.75965 8.96 10.0796 8.8 10.3996 8.8H11.1996C11.5196 8.8 11.8396 8.8 11.9996 9.44C12.3196 10.24 13.1196 12.16 13.1196 12.32C13.2796 12.48 13.2796 12.8 13.1196 12.96C13.2796 13.28 13.1196 13.6 12.9596 13.76C12.7996 13.92 12.6396 14.24 12.4796 14.4C12.1596 14.56 11.9996 14.88 12.1596 15.2C12.7996 16.16 13.5996 17.12 14.3996 17.92C15.3596 18.72 16.3196 19.36 17.4396 19.84C17.7596 20 18.0796 20 18.2396 19.68C18.3996 19.36 19.1996 18.56 19.5196 18.24C19.8396 17.92 19.9996 17.92 20.3196 18.08L22.8796 19.36C23.1996 19.52 23.5196 19.68 23.6796 19.84C23.8396 20.32 23.8396 20.96 23.5196 21.44Z"/>
    </symbol>

    <symbol id="icon-arrow-right" viewBox="0 0 44 44">
        <path d="M24.384 31.6708C24.0173 31.3042 23.8413 30.8611 23.856 30.3417C23.8707 29.8222 24.0619 29.3792 24.4298 29.0125L29.609 23.8333H9.16732C8.64788 23.8333 8.21216 23.6573 7.86016 23.3053C7.50816 22.9533 7.33277 22.5182 7.33399 22C7.33399 21.4806 7.50999 21.0448 7.86199 20.6928C8.21399 20.3408 8.6491 20.1655 9.16732 20.1667H29.609L24.384 14.9417C24.0173 14.575 23.834 14.1393 23.834 13.6345C23.834 13.1297 24.0173 12.6946 24.384 12.3292C24.7507 11.9625 25.1864 11.7792 25.6912 11.7792C26.1959 11.7792 26.631 11.9625 26.9965 12.3292L35.384 20.7167C35.5673 20.9 35.6975 21.0986 35.7745 21.3125C35.8515 21.5264 35.8894 21.7556 35.8882 22C35.8882 22.2445 35.8497 22.4736 35.7727 22.6875C35.6957 22.9014 35.5661 23.1 35.384 23.2833L26.9507 31.7167C26.6145 32.0528 26.1947 32.2208 25.6912 32.2208C25.1876 32.2208 24.7519 32.0375 24.384 31.6708Z"/>
    </symbol>

    <symbol id="icon-arrow-left" viewBox="0 0 44 44">
        <path d="M19.616 31.6708C19.9827 31.3042 20.1587 30.8611 20.144 30.3417C20.1293 29.8222 19.9381 29.3792 19.5702 29.0125L14.391 23.8333H34.8327C35.3521 23.8333 35.7878 23.6573 36.1398 23.3053C36.4918 22.9533 36.6672 22.5182 36.666 22C36.666 21.4806 36.49 21.0448 36.138 20.6928C35.786 20.3408 35.3509 20.1655 34.8327 20.1667H14.391L19.616 14.9417C19.9827 14.575 20.166 14.1393 20.166 13.6345C20.166 13.1297 19.9827 12.6946 19.616 12.3292C19.2493 11.9625 18.8136 11.7792 18.3088 11.7792C17.8041 11.7792 17.369 11.9625 17.0035 12.3292L8.61601 20.7167C8.43268 20.9 8.30251 21.0986 8.22551 21.3125C8.14851 21.5264 8.11062 21.7556 8.11184 22C8.11184 22.2445 8.15034 22.4736 8.22734 22.6875C8.30434 22.9014 8.4339 23.1 8.61601 23.2833L17.0493 31.7167C17.3855 32.0528 17.8053 32.2208 18.3088 32.2208C18.8124 32.2208 19.2481 32.0375 19.616 31.6708Z"/>
    </symbol>

    <symbol id="icon-double-arrow-down" viewBox="0 0 28 33">
        <path d="M28 18.9729L14 32.9729L0 18.9729L3.26667 15.7062L14 26.3812L24.7333 15.7062L28 18.9729ZM28 3.5729L14 17.5729L0 3.5729L3.26667 0.306232L14 10.9812L24.7333 0.306232L28 3.5729Z"/>
    </symbol>
</svg>
